<svg xmlns="http://www.w3.org/2000/svg" viewBox="0 0 520 360" role="img" aria-label="Villa R&amp;R">
  <defs><linearGradient id="gold" x1="0" y1="0" x2="0.85" y2="1">
    <stop offset="0" stop-color="#D8B876"/><stop offset="0.5" stop-color="#B08A3E"/><stop offset="1" stop-color="#8A6A2C"/>
  </linearGradient></defs>
  <g transform="translate(260.0,180.0) rotate(-4) scale(1.0)">
    <path d="M -22 -128 C 10 -136 30 -128 40 -120 C 48 -114 56 -120 74 -116 C 104 -110 120 -100 150 -92 C 172 -86 190 -84 200 -70 C 208 -58 196 -50 202 -40 C 206 -30 196 -22 176 -20 C 158 -18 150 -28 140 -20 C 130 -12 138 2 120 18 C 108 28 100 22 92 30 C 84 38 90 50 74 54 C 62 57 58 46 48 44 C 38 42 40 58 24 78 C 12 92 -2 92 -14 88 C -24 85 -22 74 -34 74 C -50 74 -56 90 -78 84 C -96 79 -88 66 -102 62 C -118 57 -126 74 -150 66 C -170 59 -158 44 -172 40 C -186 36 -200 40 -206 24 C -211 10 -196 4 -196 -6 C -196 -18 -210 -16 -206 -30 C -203 -42 -186 -38 -176 -46 C -164 -55 -168 -66 -150 -74 C -136 -80 -128 -70 -118 -76 C -104 -84 -110 -100 -88 -104 C -72 -107 -68 -96 -58 -98 C -46 -100 -50 -122 -22 -128 Z" fill="none" stroke="url(#gold)" stroke-width="2.2" stroke-linejoin="round" stroke-linecap="round"/></g>
  <path transform="translate(111.97,219.76) scale(1.0673)" d="M89.41 4.20 Q86.59 4.20 83.84 2.89 Q81.09 1.59 78.70 -0.91 Q75.20 -4.50 72.64 -9.55 Q70.09 -14.59 68.30 -19.94 Q66.50 -25.30 65.50 -29.75 Q64.50 -34.20 64.09 -36.59 Q60.41 -29.50 56.45 -22.55 Q52.50 -15.59 46.41 -8.91 Q40.59 -2.59 33.69 0.66 Q26.80 3.91 19.41 3.91 Q17.09 3.91 14.70 3.59 Q8.09 2.80 5.00 -0.20 Q1.91 -3.20 1.91 -6.59 Q1.91 -10.30 5.20 -13.30 Q8.50 -16.30 14.59 -16.30 Q16.59 -16.30 18.89 -15.89 Q21.20 -15.50 23.70 -14.59 Q24.80 -14.20 24.80 -13.70 Q24.80 -13.30 24.00 -13.30 Q23.50 -13.30 23.20 -13.41 Q19.91 -14.59 17.30 -14.59 Q13.09 -14.59 10.89 -12.14 Q8.70 -9.70 8.70 -6.80 Q8.70 -4.00 11.09 -1.59 Q13.50 0.80 18.50 0.80 Q24.80 0.80 30.09 -2.14 Q35.41 -5.09 40.00 -10.25 Q44.59 -15.41 48.80 -21.95 Q53.00 -28.50 57.00 -35.59 Q63.70 -47.50 69.14 -57.25 Q74.59 -67.00 80.70 -73.80 Q78.00 -74.09 75.20 -74.19 Q72.41 -74.30 69.50 -74.30 Q63.20 -74.30 56.45 -73.64 Q49.70 -73.00 43.41 -71.59 Q34.91 -69.80 28.80 -66.25 Q22.70 -62.70 19.14 -58.34 Q15.59 -54.00 14.70 -49.59 Q14.41 -48.00 14.41 -46.50 Q14.41 -41.41 17.80 -38.59 Q21.20 -35.80 25.59 -35.80 Q28.41 -35.80 31.25 -36.94 Q34.09 -38.09 36.41 -40.59 Q38.30 -42.59 39.19 -44.34 Q40.09 -46.09 40.20 -47.00 Q40.30 -48.41 40.80 -48.41 Q41.09 -48.41 41.34 -47.91 Q41.59 -47.41 41.50 -46.91 Q41.09 -44.59 40.09 -42.39 Q39.09 -40.20 37.70 -38.70 Q34.91 -35.80 31.30 -34.39 Q27.70 -33.00 24.41 -33.00 Q20.50 -33.00 17.05 -34.70 Q13.59 -36.41 11.50 -39.66 Q9.41 -42.91 9.41 -47.70 Q9.41 -53.30 13.30 -59.14 Q17.20 -65.00 25.05 -69.50 Q32.91 -74.00 44.59 -75.70 Q50.50 -76.50 56.05 -76.95 Q61.59 -77.41 66.80 -77.41 Q71.00 -77.41 75.00 -77.09 Q79.00 -76.80 82.91 -76.30 Q85.50 -79.00 86.41 -79.00 Q87.09 -79.00 87.09 -77.91 Q87.09 -77.50 87.00 -76.89 Q86.91 -76.30 86.70 -75.70 Q89.41 -75.30 91.95 -74.84 Q94.50 -74.41 96.50 -73.80 Q104.41 -71.59 108.05 -68.05 Q111.70 -64.50 111.70 -60.41 Q111.70 -56.00 107.75 -51.59 Q103.80 -47.20 96.64 -43.80 Q89.50 -40.41 79.91 -38.80 Q76.80 -38.30 74.44 -38.09 Q72.09 -37.91 70.41 -37.80 Q70.59 -36.80 71.30 -33.59 Q72.00 -30.41 73.30 -26.05 Q74.59 -21.70 76.64 -16.89 Q78.70 -12.09 81.59 -7.80 Q83.91 -4.41 86.30 -2.20 Q88.70 -0.00 91.41 -0.00 Q93.09 -0.00 94.94 -0.89 Q96.80 -1.80 98.80 -3.80 Q101.20 -6.20 103.20 -9.20 Q105.20 -12.20 106.59 -14.95 Q108.00 -17.70 108.70 -19.30 Q109.30 -19.30 109.59 -19.19 Q109.91 -19.09 109.91 -18.41 Q109.50 -17.41 108.50 -15.25 Q107.50 -13.09 106.14 -10.44 Q104.80 -7.80 103.19 -5.19 Q101.59 -2.59 100.00 -0.80 Q97.70 1.70 94.84 2.95 Q92.00 4.20 89.41 4.20 Z M66.20 -40.50 Q69.09 -41.00 72.39 -41.20 Q75.70 -41.41 78.91 -41.80 Q84.09 -42.50 88.69 -44.55 Q93.30 -46.59 96.84 -49.50 Q100.41 -52.41 102.41 -55.66 Q104.41 -58.91 104.41 -61.91 Q104.41 -68.70 95.30 -71.30 Q93.50 -71.80 90.64 -72.30 Q87.80 -72.80 85.50 -73.20 Q80.70 -65.00 75.64 -57.09 Q70.59 -49.20 66.20 -40.50 Z M129.10 4.50 Q120.60 4.50 114.99 1.84 Q109.39 -0.80 106.64 -5.14 Q103.89 -9.50 103.89 -14.41 Q103.89 -19.91 107.19 -25.34 Q110.50 -30.80 117.05 -34.75 Q123.60 -38.70 133.10 -39.70 Q131.71 -41.59 131.00 -44.05 Q130.30 -46.50 130.30 -48.70 Q130.39 -54.00 133.30 -58.05 Q136.21 -62.09 140.75 -64.89 Q145.30 -67.70 150.50 -69.14 Q155.71 -70.59 160.30 -70.59 Q163.10 -70.59 165.99 -69.84 Q168.89 -69.09 170.89 -67.19 Q172.89 -65.30 172.89 -61.80 Q172.89 -58.91 171.10 -56.59 Q169.30 -54.30 166.71 -54.30 Q164.80 -54.30 163.39 -55.69 Q162.00 -57.09 162.00 -58.91 Q162.00 -61.00 163.35 -62.34 Q164.71 -63.70 166.71 -63.70 Q167.60 -63.70 168.74 -63.09 Q169.89 -62.50 170.21 -61.91 Q170.30 -62.30 170.30 -63.00 Q170.30 -65.70 168.10 -66.80 Q165.89 -67.91 163.39 -67.91 Q159.39 -67.91 154.10 -65.95 Q148.80 -64.00 143.80 -59.59 Q142.00 -58.00 140.10 -55.39 Q138.21 -52.80 136.89 -49.84 Q135.60 -46.91 135.60 -43.91 Q135.60 -41.59 136.39 -39.91 Q137.89 -39.91 139.85 -40.05 Q141.80 -40.20 143.89 -40.20 Q146.50 -40.20 148.00 -39.09 Q149.50 -38.00 149.50 -36.59 Q149.50 -35.59 148.30 -34.69 Q147.10 -33.80 144.50 -33.80 Q141.21 -33.80 138.55 -35.25 Q135.89 -36.70 134.39 -38.20 Q127.80 -37.30 123.19 -33.30 Q118.60 -29.30 116.19 -23.84 Q113.80 -18.41 113.80 -13.00 Q113.80 -8.70 115.44 -5.00 Q117.10 -1.30 120.49 0.95 Q123.89 3.20 129.10 3.20 Q134.50 3.20 138.94 1.25 Q143.39 -0.70 146.60 -3.80 Q149.80 -6.91 151.55 -10.34 Q153.30 -13.80 153.30 -16.80 Q153.30 -19.41 151.44 -21.16 Q149.60 -22.91 146.60 -23.75 Q143.60 -24.59 140.21 -24.59 Q136.71 -24.59 133.25 -23.64 Q129.80 -22.70 127.39 -20.75 Q125.00 -18.80 124.50 -15.80 Q124.50 -15.59 124.44 -15.34 Q124.39 -15.09 124.39 -14.91 Q124.39 -12.70 126.05 -10.55 Q127.71 -8.41 131.21 -6.59 Q132.10 -6.20 132.10 -5.09 Q132.10 -4.00 131.10 -4.50 Q125.60 -7.41 123.05 -10.84 Q120.50 -14.30 120.50 -17.41 Q120.50 -21.91 125.35 -25.16 Q130.21 -28.41 139.21 -28.41 L156.89 -28.41 Q158.50 -28.41 161.64 -29.09 Q164.80 -29.80 168.10 -31.14 Q171.39 -32.50 173.74 -34.34 Q176.10 -36.20 176.10 -38.59 Q176.10 -39.91 175.21 -41.41 Q175.00 -41.70 175.00 -42.09 Q175.00 -42.70 175.50 -42.70 Q175.89 -42.70 176.21 -42.20 Q177.71 -40.00 177.71 -37.70 Q177.71 -35.00 175.75 -32.70 Q173.80 -30.41 170.50 -28.66 Q167.21 -26.91 163.14 -26.00 Q159.10 -25.09 154.89 -25.20 Q156.80 -23.59 157.69 -21.59 Q158.60 -19.59 158.60 -17.41 Q158.60 -13.70 156.39 -9.84 Q154.21 -6.00 150.21 -2.75 Q146.21 0.50 140.85 2.50 Q135.50 4.50 129.10 4.50 Z M144.50 -35.50 Q147.80 -35.50 147.80 -36.80 Q147.80 -37.30 146.94 -37.84 Q146.10 -38.41 144.71 -38.50 Q144.10 -38.59 142.69 -38.59 Q141.30 -38.59 139.75 -38.59 Q138.21 -38.59 137.21 -38.59 Q139.71 -35.50 144.50 -35.50 Z M253.21 4.20 Q250.39 4.20 247.64 2.89 Q244.89 1.59 242.50 -0.91 Q239.00 -4.50 236.44 -9.55 Q233.89 -14.59 232.10 -19.94 Q230.30 -25.30 229.30 -29.75 Q228.30 -34.20 227.89 -36.59 Q224.21 -29.50 220.25 -22.55 Q216.30 -15.59 210.21 -8.91 Q204.39 -2.59 197.49 0.66 Q190.60 3.91 183.21 3.91 Q180.89 3.91 178.50 3.59 Q171.89 2.80 168.80 -0.20 Q165.71 -3.20 165.71 -6.59 Q165.71 -10.30 169.00 -13.30 Q172.30 -16.30 178.39 -16.30 Q180.39 -16.30 182.69 -15.89 Q185.00 -15.50 187.50 -14.59 Q188.60 -14.20 188.60 -13.70 Q188.60 -13.30 187.80 -13.30 Q187.30 -13.30 187.00 -13.41 Q183.71 -14.59 181.10 -14.59 Q176.89 -14.59 174.69 -12.14 Q172.50 -9.70 172.50 -6.80 Q172.50 -4.00 174.89 -1.59 Q177.30 0.80 182.30 0.80 Q188.60 0.80 193.89 -2.14 Q199.21 -5.09 203.80 -10.25 Q208.39 -15.41 212.60 -21.95 Q216.80 -28.50 220.80 -35.59 Q227.50 -47.50 232.94 -57.25 Q238.39 -67.00 244.50 -73.80 Q241.80 -74.09 239.00 -74.19 Q236.21 -74.30 233.30 -74.30 Q227.00 -74.30 220.25 -73.64 Q213.50 -73.00 207.21 -71.59 Q198.71 -69.80 192.60 -66.25 Q186.50 -62.70 182.94 -58.34 Q179.39 -54.00 178.50 -49.59 Q178.21 -48.00 178.21 -46.50 Q178.21 -41.41 181.60 -38.59 Q185.00 -35.80 189.39 -35.80 Q192.21 -35.80 195.05 -36.94 Q197.89 -38.09 200.21 -40.59 Q202.10 -42.59 202.99 -44.34 Q203.89 -46.09 204.00 -47.00 Q204.10 -48.41 204.60 -48.41 Q204.89 -48.41 205.14 -47.91 Q205.39 -47.41 205.30 -46.91 Q204.89 -44.59 203.89 -42.39 Q202.89 -40.20 201.50 -38.70 Q198.71 -35.80 195.10 -34.39 Q191.50 -33.00 188.21 -33.00 Q184.30 -33.00 180.85 -34.70 Q177.39 -36.41 175.30 -39.66 Q173.21 -42.91 173.21 -47.70 Q173.21 -53.30 177.10 -59.14 Q181.00 -65.00 188.85 -69.50 Q196.71 -74.00 208.39 -75.70 Q214.30 -76.50 219.85 -76.95 Q225.39 -77.41 230.60 -77.41 Q234.80 -77.41 238.80 -77.09 Q242.80 -76.80 246.71 -76.30 Q249.30 -79.00 250.21 -79.00 Q250.89 -79.00 250.89 -77.91 Q250.89 -77.50 250.80 -76.89 Q250.71 -76.30 250.50 -75.70 Q253.21 -75.30 255.75 -74.84 Q258.30 -74.41 260.30 -73.80 Q268.21 -71.59 271.85 -68.05 Q275.50 -64.50 275.50 -60.41 Q275.50 -56.00 271.55 -51.59 Q267.60 -47.20 260.44 -43.80 Q253.30 -40.41 243.71 -38.80 Q240.60 -38.30 238.24 -38.09 Q235.89 -37.91 234.21 -37.80 Q234.39 -36.80 235.10 -33.59 Q235.80 -30.41 237.10 -26.05 Q238.39 -21.70 240.44 -16.89 Q242.50 -12.09 245.39 -7.80 Q247.71 -4.41 250.10 -2.20 Q252.50 -0.00 255.21 -0.00 Q256.89 -0.00 258.74 -0.89 Q260.60 -1.80 262.60 -3.80 Q265.00 -6.20 267.00 -9.20 Q269.00 -12.20 270.39 -14.95 Q271.80 -17.70 272.50 -19.30 Q273.10 -19.30 273.39 -19.19 Q273.71 -19.09 273.71 -18.41 Q273.30 -17.41 272.30 -15.25 Q271.30 -13.09 269.94 -10.44 Q268.60 -7.80 266.99 -5.19 Q265.39 -2.59 263.80 -0.80 Q261.50 1.70 258.64 2.95 Q255.80 4.20 253.21 4.20 Z M230.00 -40.50 Q232.89 -41.00 236.19 -41.20 Q239.50 -41.41 242.71 -41.80 Q247.89 -42.50 252.49 -44.55 Q257.10 -46.59 260.64 -49.50 Q264.21 -52.41 266.21 -55.66 Q268.21 -58.91 268.21 -61.91 Q268.21 -68.70 259.10 -71.30 Q257.30 -71.80 254.44 -72.30 Q251.60 -72.80 249.30 -73.20 Q244.50 -65.00 239.44 -57.09 Q234.39 -49.20 230.00 -40.50 Z" fill="url(#gold)"/>
</svg>